# xmcd
#
# Track frame offsets:
# 150
# 15441
# 31637
# 48731
# 61422
# 77160
# 98462
# 112172
# 131620
# 132072
# 147330
#
# Disc length: 2185 seconds
#
#
# Revision: 0
# Processed by: cddbd v1.5PL3 Copyright (c) Steve Scherf et al.
# Submitted via: FreeRIP 2.53 
#
DISCID=8c08870b
DTITLE=McGraw, Tim - Everywhere
DYEAR=1900
DGENRE=
TTITLE0=Where The Green Grass Grows
TTITLE1=For A Little While
TTITLE2=It's Your Love (Duet with Faith Hill)
TTITLE3=Ain't That The Way It Always Ends
TTITLE4=I Do But I Don't
TTITLE5=One Of These Days
TTITLE6=Hard On The Ticker
TTITLE7=Everywhere
TTITLE8=Just To See You Smile
TTITLE9=You Just Get Better All The Time
TTITLE10=You Turn Me On
EXTD=
EXTT0=
EXTT1=
EXTT2=
EXTT3=
EXTT4=
EXTT5=
EXTT6=
EXTT7=
EXTT8=
EXTT9=
EXTT10=
PLAYORDER=
